#!OML:ASF F:\VICON\USERDATA\INSTALL\rory3\rory3.ASF
:FULLY-SPECIFIED
:DEGREES
54
root 0.46367564688910146 17.734485181075108 18.85220404510829 -2.0715073962576995 -4.230410837289083 -5.0543383318860196
lfemur -23.8475004745397 -3.701775919355944 -15.688870175655776
ltibia 23.191799734745466
lfoot -2.1461327298310118 -1.3106052191553013
ltoes -2.434786406912525
rfemur 12.593385932304809 5.361761346089212 29.96557727783216
rtibia 38.1452638997663
rfoot -3.4815591418772414 2.4165544536126458
rtoes -2.61710813969026
lowerback 8.710788542696475 2.991475378939088 5.432566025232531
upperback 0.09597251834003839 4.570956399491742 1.067104269537982
thorax -4.6390221093690895 2.1570137125706212 -2.270859778528786
lowerneck -16.70545313341872 -3.3568222753824775 -1.5370047364319102
upperneck 20.769515830771393 -4.514670612920314 1.462639501126929
head 9.364140540434631 -2.079464748084092 0.14791429448742707
lclavicle -2.000804198273595e-15 8.631785657587243e-16
lhumerus -39.782892216560306 8.084829689252134 81.71197200492571
lradius 18.557420364342253
lwrist -1.3378387047285427
lhand -25.109985917158017 23.710463685937505
lfingers 7.12502
lthumb 1.405373385618718 53.68528786032711
rclavicle -2.000804198273595e-15 8.631785657587243e-16
rhumerus -23.809857386769103 -12.826629535927758 -81.6517416680187
rradius 29.233230374786878
rwrist 1.8501793500432493
rhand -18.541295357034684 23.80593956594092
rfingers 7.12502
rthumb 7.747801568362101 -6.033496932196799
55
root 0.5909812862284274 17.79590068199636 20.30411416874327 -2.7183267333121 -4.1150416288830485 -3.4172225253807396
lfemur -21.511585049534556 -3.2569641891037775 -18.42507788697186
ltibia 26.727234451182987
lfoot -2.760294923449715 -2.1802836093504334
ltoes -0.6337297075999881
rfemur 8.498010391561444 4.231560403894205 27.136427678993556
rtibia 48.605563152724386
rfoot 7.7178214404465955 3.261245319853481
rtoes 3.6285590500077882
lowerback 8.925200966354105 3.0127573239724135 4.143964170144339
upperback 0.10472813650267493 4.44745963078395 0.6716078260126536
thorax -4.753857372913873 2.1190195254209514 -1.8972977357772192
lowerneck -16.658702238035357 -3.3362439476965964 -1.6104533601526978
upperneck 20.90994843121099 -4.487486424788547 1.5406944360162629
head 9.414584743003644 -2.0657646544010118 0.189059328164363
lclavicle -1.7704438017519316e-15 1.0758568722462535e-15
lhumerus -39.64613884158273 8.435504125003117 81.51236544787828
lradius 18.56300415878557
lwrist -0.7129028562202695
lhand -24.69222549564977 24.29967700227201
lfingers 7.12502
lthumb 1.8088571690038922 54.271887847783034
rclavicle -1.7704438017519316e-15 1.0758568722462535e-15
rhumerus -24.828393936472903 -14.329318871963528 -81.29547143066132
rradius 28.73386308264144
rwrist 2.6892967208769156
rhand -18.327638114741212 23.321260485838025
rfingers 7.12502
rthumb 7.954024844970412 -6.510744062924063
56
root 0.682590511914642 17.865531511075513 21.120505693462036 -3.282186166380927 -4.417657294603117 -1.9392905354216952
lfemur -18.653215026640435 -3.1978996552902785 -20.971098228540257
ltibia 27.854200537916814
lfoot -4.7821149412023445 -1.1675460544128582
ltoes 0.6819955381014693
rfemur 2.269714337492699 3.080951661218795 24.328198818771043
rtibia 59.11313338245506
rfoot 15.301017684904622 1.3644824185357294
rtoes 10.186029857478973
lowerback 9.269231860982861 2.924278088495642 2.6950359212280715
upperback 0.16198486034516218 4.171716901361942 0.34692640317940615
thorax -4.900723313479679 2.009208972715885 -1.4462270117053775
lowerneck -16.695320912022563 -3.2225198429630537 -1.6511702188254624
upperneck 20.92255739623054 -4.317700926564168 1.501711000683323
head 9.428446244454106 -1.9955550475723138 0.20576682335341515
lclavicle -1.9257599589749892e-15 9.328374039224052e-16
lhumerus -39.106420291524074 7.86351040431175 81.68287579253835
lradius 19.09514391491412
lwrist 1.0863387428576865
lhand -25.06174683487317 24.491549187780258
lfingers 7.12502
lthumb 1.4519852479320774 54.45780231933037
rclavicle -1.9257599589749892e-15 9.328374039224052e-16
rhumerus -25.686482975167237 -15.847051408431804 -81.00679879420844
rradius 27.80013452089435
rwrist 3.97969079618795
rhand -18.016183113937263 23.016888319608142
rfingers 7.12502
rthumb 8.254653199723862 -6.804144471763902
57
root 0.744121043458492 17.927695857476333 21.545565535397934 -3.748073716560224 -4.701632206163204 -0.6812285538218987
lfemur -15.332346385539497 -3.361516792354391 -23.075716427964686
ltibia 27.51901091173579
lfoot -7.290721965096812 0.464820751268437
ltoes 1.5708602644254737
rfemur -4.552296925780674 1.9268410052743228 22.123065091794302
rtibia 67.88985854302125
rfoot 15.728403100528507 -2.201134243917955
rtoes 13.267910085660551
lowerback 9.6054182857485 2.697466126254122 1.3335379542779495
upperback 0.2857913083729774 3.7244054939509703 0.16225522164537254
thorax -5.000620536333322 1.8147678826272327 -0.906379552414145
lowerneck -16.70517344500532 -3.0505532536812954 -1.6779499917324032
upperneck 20.826962018605496 -4.055295702738862 1.395008083424286
head 9.394231914697297 -1.8901988645213468 0.21360736302047578
lclavicle -2.0935975430786275e-15 7.776552474325801e-16
lhumerus -38.063618842412296 6.703287754411704 82.09313407890923
lradius 19.785057166745425
lwrist 2.6774856368423006
lhand -26.1552718494332 23.39923721509228
lfingers 7.12502
lthumb 0.3958874805121897 53.36635593991259
rclavicle -2.0935975430786275e-15 7.7765524743258e-16
rhumerus -26.258179922718654 -17.35392776228139 -80.69197016643737
rradius 26.57668940708351
rwrist 5.541985422835928
rhand -17.61974568772177 22.182636716308487
rfingers 7.12502
rthumb 8.637261777424147 -7.621747451371879
58
root 0.7871421878844436 17.962063598092957 22.567701518765336 -4.071502887618134 -4.591957093753641 0.26136592263056535
lfemur -12.123548220646585 -3.5581261189991267 -24.534988992894576
ltibia 26.79139097064331
lfoot -9.394299548259097 1.9567142196406124
ltoes 1.9155839452291823
rfemur -10.774197094719907 0.8810555661017374 20.864452596651468
rtibia 74.24319448098117
rfoot 10.493160240699332 -5.375739659891127
rtoes 12.685531371658925
lowerback 9.873635212753568 2.329959227476421 0.3301123355020882
upperback 0.4509863816822508 3.124105731422421 0.11926459207213158
thorax -5.029339860535235 1.5410748157802998 -0.33705686872530405
lowerneck -16.647804943668326 -2.873173773095658 -1.7194648344776589
upperneck 20.766703918157326 -3.778773795444608 1.2670336270180513
head 9.363547165608734 -1.780662214769696 0.22513983352830297
lclavicle -2.024731638911647e-15 8.404068134629325e-16
lhumerus -36.44742142711196 5.545749946012271 82.42222911558599
lradius 20.448934215777264
lwrist 3.3243282340742812
lhand -26.863617968120412 22.95267017266953
lfingers 7.12502
lthumb -0.2882798002624845 52.91800605745146
rclavicle -2.024731638911647e-15 8.404068134629325e-16
rhumerus -26.61336388903342 -18.68319848344095 -80.36458700094347
rradius 25.547053661541817
rwrist 6.963130546658711
rhand -17.392711305418477 21.878098806563642
rfingers 7.12502
rthumb 8.856368398274736 -7.916697570545213
59
root 0.8350190308839552 17.983505869098817 23.796582398162762 -4.253320321822235 -3.979219150862496 0.9634630125284893
lfemur -8.915919357219574 -3.7584816890599857 -25.55303934537457
ltibia 26.948494137670288
lfoot -11.049056890640202 3.083313101808394
ltoes 1.9588629489382954
rfemur -16.392250697623638 -0.023997800059843755 20.446484817824555
rtibia 77.51635644319094
rfoot 3.529076656784552 -6.766927552231179
rtoes 10.797145286364698
lowerback 10.123114630689829 1.8160052117042862 -0.3422538044338297
upperback 0.5813194993797275 2.3658596648425823 0.22069771093177715
thorax -5.05631282991465 1.1837740390370919 0.2920947310507651
lowerneck -16.499823348638856 -2.713721870336705 -1.7508412735763927
upperneck 20.800612017243427 -3.5205522871366237 1.0961375740929045
head 9.350607039187338 -1.6834400692639138 0.22380123846879774
lclavicle -1.6742429006683755e-15 1.1632055917698463e-15
lhumerus -34.42614267427844 4.276197129557309 82.72455169543656
lradius 21.024046396800596
lwrist 3.4146202631698053
lhand -27.101762897179405 22.580484864866737
lfingers 7.12502
lthumb -0.518287204557478 52.54595801909239
rclavicle -1.6742429006683755e-15 1.1632055917698463e-15
rhumerus -27.025399643271307 -19.636490576409805 -79.97115651089204
rradius 24.93115673335579
rwrist 7.690591594211992
rhand -17.24545829109988 21.972086954489413
rfingers 7.12502
rthumb 8.998480397802766 -7.817600519148484
60
root 0.8618541760472954 17.981181479969944 24.336249420375907 -4.243175788325981 -3.2301626138312773 1.4240627578780818
lfemur -6.152384102356283 -3.8831446268780248 -26.389268877573592
ltibia 26.66492109338423
lfoot -12.783064643079534 3.9057172195087997
ltoes 1.9146665337327406
rfemur -21.456068880656098 -0.6834200009411324 20.36934319834896
rtibia 76.6118885021117
rfoot -2.9830715766223204 -6.6705182108712915
rtoes 7.946427478883566
lowerback 10.303721425291787 1.2669218160445461 -0.9127392718694376
upperback 0.6704465532586106 1.5759108912334223 0.37763188816051674
thorax -5.072420062705774 0.8080834148401093 0.868576613194297
lowerneck -16.340421801049683 -2.6365281969732584 -1.9299949201376192
upperneck 20.79108281744061 -3.3810926608673446 1.035052378455938
head 9.318211049428474 -1.6335487285724846 0.258646181063115
lclavicle -1.5648621428726227e-15 1.2643501773343358e-15
lhumerus -32.195421298174786 2.4043731028575364 83.06620191607428
lradius 21.909336088623306
lwrist 3.4056395300404785
lhand -27.254293742421357 22.65379133872925
lfingers 7.12502
lthumb -0.6656069768842419 52.62439871489761
rclavicle -1.5648621428726227e-15 1.2643501773343358e-15
rhumerus -27.573132871028584 -19.90578469984975 -79.77271422626453
rradius 24.783337387527983
rwrist 7.323224510539249
rhand -17.175226802620966 21.937194643701023
rfingers 7.12502
rthumb 9.066232420538887 -7.848907855025375
